<svg xmlns="http://www.w3.org/2000/svg" viewBox="0 0 320 240" role="img" aria-labelledby="t"><title id="t">A child going to school</title><rect width="320" height="240" rx="28" fill="#e9f8f0"/><path d="M177 65l67-38 67 38" fill="#ff786d"/><rect x="188" y="65" width="112" height="130" rx="5" fill="#fff1c0"/><rect x="230" y="128" width="29" height="67" fill="#684ec5"/><path d="M199 91h27m47 0h17m-91 25h27m47 0h17" stroke="#55bde9" stroke-width="14"/><path d="M56 198q5-73 54-73t53 73" fill="#5d4ace"/><circle cx="110" cy="86" r="36" fill="#f4bd8e"/><path d="M76 82q2-43 47-40 28 9 22 39-32-5-46-20-3 15-23 21" fill="#3f315c"/><path d="M101 93q9 7 18 0" stroke="#8e4452" stroke-width="4" fill="none"/><path d="M61 144l-25 32m118-33l23 35" stroke="#f4bd8e" stroke-width="13" stroke-linecap="round"/><rect x="38" y="124" width="35" height="68" rx="10" fill="#ff9c65"/><path d="M0 198h320" stroke="#62c687" stroke-width="18"/></svg>
